<?xml version="1.0" encoding="utf-8"?>
<!-- Generator: Adobe Illustrator 27.5.0, SVG Export Plug-In . SVG Version: 6.00 Build 0)  -->
<svg version="1.1" id="Layer_1" xmlns="http://www.w3.org/2000/svg" xmlns:xlink="http://www.w3.org/1999/xlink" x="0px" y="0px"
	 viewBox="0 0 3000 2000" style="enable-background:new 0 0 3000 2000;" xml:space="preserve">
<rect transform="matrix(-1 -1.224647e-16 1.224647e-16 -1 3000 2000)" style="fill:#FFFFFF;" width="3000" height="2000"/>
<g>
	<path style="fill:#EBF3FA;" d="M2881.817,1292.681c-95.684-186.469-596.255,129.34-683.927-342.458
		c-87.671-471.798-430.571-849.961-943.144-333.519c-176.09,185.294-626.881,489.706-933.86,319.524S-5.453,1599.7,387.26,1749.818
		l2398.874-3.514C2786.133,1746.303,2977.502,1479.149,2881.817,1292.681z"/>
	<g>
		<g>
			
				<rect x="730.931" y="1581.345" transform="matrix(-1 -1.224647e-16 1.224647e-16 -1 1495.3201 3316.1353)" style="fill:#A53D38;" width="33.457" height="153.445"/>
			
				<rect x="563.883" y="1534.46" transform="matrix(-1 -1.224647e-16 1.224647e-16 -1 1161.223 3269.2502)" style="fill:#35488B;" width="33.457" height="200.329"/>
			
				<rect x="697.474" y="1581.345" transform="matrix(-1 -1.224647e-16 1.224647e-16 -1 1428.4055 3316.1353)" style="fill:#35488B;" width="33.457" height="153.445"/>
			
				<rect x="597.34" y="1560.302" transform="matrix(-1 -1.224647e-16 1.224647e-16 -1 1228.1375 3295.0916)" style="fill:#F1A34F;" width="33.457" height="174.488"/>
			
				<rect x="831.225" y="1548.233" transform="matrix(-1 -1.224647e-16 1.224647e-16 -1 1695.9075 3283.0225)" style="fill:#F1A34F;" width="33.457" height="186.557"/>
			
				<rect x="764.336" y="1548.233" transform="matrix(-1 -1.224647e-16 1.224647e-16 -1 1562.1299 3283.0225)" style="fill:#F1A34F;" width="33.457" height="186.557"/>
			
				<rect x="797.768" y="1601.985" transform="matrix(-1 -1.224647e-16 1.224647e-16 -1 1628.9929 3336.7754)" style="fill:#A53D38;" width="33.457" height="132.804"/>
			
				<rect x="864.665" y="1560.186" transform="matrix(-1 -1.224647e-16 1.224647e-16 -1 1762.7882 3294.8596)" style="fill:#A53D38;" width="33.457" height="174.488"/>
			
				<rect x="530.426" y="1581.351" transform="matrix(-1 -1.224647e-16 1.224647e-16 -1 1094.3085 3316.1475)" style="fill:#A53D38;" width="33.457" height="153.445"/>
			
				<rect x="664.255" y="1616.379" transform="matrix(-1 -1.224647e-16 1.224647e-16 -1 1361.9664 3351.1687)" style="fill:#F1A34F;" width="33.457" height="118.411"/>
			
				<rect x="630.797" y="1536.782" transform="matrix(-1 -1.224647e-16 1.224647e-16 -1 1295.052 3271.5723)" style="fill:#A53D38;" width="33.457" height="198.008"/>
			<polygon style="fill:#F1A34F;" points="450.143,1724.171 481.998,1734.674 533.956,1568.541 502.1,1558.038 			"/>
			
				<rect x="567.79" y="1700.761" transform="matrix(-1 -1.224647e-16 1.224647e-16 -1 1160.8798 3430.7661)" style="fill:#A53D38;" width="25.299" height="29.244"/>
			
				<rect x="635.447" y="1547.326" transform="matrix(-1 -1.224647e-16 1.224647e-16 -1 1296.4252 3101.6155)" style="fill:#F1A34F;" width="25.531" height="6.963"/>
			
				<rect x="635.447" y="1559.047" transform="matrix(-1 -1.224647e-16 1.224647e-16 -1 1296.4252 3125.0576)" style="fill:#F1A34F;" width="25.531" height="6.963"/>
			
				<rect x="600.168" y="1577.035" transform="matrix(-1 -1.224647e-16 1.224647e-16 -1 1228.3043 3157.5513)" style="fill:#FFFFFF;" width="27.968" height="3.481"/>
			<path style="fill:#35488B;" d="M881.471,1598.891L881.471,1598.891c6.826,0,12.359-5.533,12.359-12.359v-18.974h-24.718v18.974
				C869.112,1593.357,874.646,1598.891,881.471,1598.891z"/>
			
				<rect x="767.453" y="1553.632" transform="matrix(-1 -1.224647e-16 1.224647e-16 -1 1563.2224 3111.093)" style="fill:#35488B;" width="28.316" height="3.83"/>
			
				<rect x="800.566" y="1725.462" transform="matrix(-1 -1.224647e-16 1.224647e-16 -1 1629.2931 3456.9583)" style="fill:#35488B;" width="28.161" height="6.035"/>
			
				<rect x="800.566" y="1717.416" transform="matrix(-1 -1.224647e-16 1.224647e-16 -1 1629.2931 3440.866)" style="fill:#FFFFFF;" width="28.161" height="6.035"/>
			<path style="fill:#FFFFFF;" d="M814.646,1712L814.646,1712c6.73,0,12.185-5.456,12.185-12.185l0,0
				c0-6.73-5.456-12.185-12.185-12.185l0,0c-6.73,0-12.185,5.456-12.185,12.185l0,0C802.461,1706.545,807.917,1712,814.646,1712z"/>
			
				<rect x="835.636" y="1606.348" transform="matrix(-1 -1.224647e-16 1.224647e-16 -1 1695.8737 3271.4175)" style="fill:#A53D38;" width="24.602" height="58.721"/>
			
				<rect x="734.805" y="1593.785" transform="matrix(-1 -1.224647e-16 1.224647e-16 -1 1495.9138 3193.604)" style="fill:#FFFFFF;" width="26.304" height="6.035"/>
			
				<rect x="734.508" y="1624.267" transform="matrix(-1 -1.224647e-16 1.224647e-16 -1 1495.3201 3254.5684)" style="fill:#FFFFFF;" width="26.304" height="6.035"/>
			<path style="fill:#FFFFFF;" d="M538.52,1606.473h18.42c2.521,0,4.565-2.044,4.565-4.565l0,0c0-2.521-2.044-4.565-4.565-4.565
				h-18.42c-2.521,0-4.565,2.044-4.565,4.565l0,0C533.956,1604.429,535.999,1606.473,538.52,1606.473z"/>
		</g>
		<g>
			
				<rect x="2206.909" y="1335.229" transform="matrix(-1 -1.224647e-16 1.224647e-16 -1 4447.2759 2823.9019)" style="fill:#A53D38;" width="33.457" height="153.445"/>
			
				<rect x="2039.765" y="1288.476" transform="matrix(-1 -1.224647e-16 1.224647e-16 -1 4112.9878 2777.2815)" style="fill:#35488B;" width="33.457" height="200.33"/>
			
				<rect x="2173.452" y="1335.307" transform="matrix(-1 -1.224647e-16 1.224647e-16 -1 4380.3613 2824.0581)" style="fill:#35488B;" width="33.457" height="153.445"/>
			
				<rect x="2073.223" y="1314.185" transform="matrix(-1 -1.224647e-16 1.224647e-16 -1 4179.9023 2802.8582)" style="fill:#F1A34F;" width="33.457" height="174.488"/>
			
				<rect x="2307.168" y="1302.181" transform="matrix(-1 -1.224647e-16 1.224647e-16 -1 4647.793 2790.9199)" style="fill:#F1A34F;" width="33.457" height="186.557"/>
			
				<rect x="2240.253" y="1302.116" transform="matrix(-1 -1.224647e-16 1.224647e-16 -1 4513.9644 2790.7891)" style="fill:#F1A34F;" width="33.457" height="186.557"/>
			
				<rect x="2273.711" y="1355.869" transform="matrix(-1 -1.224647e-16 1.224647e-16 -1 4580.8789 2844.542)" style="fill:#A53D38;" width="33.457" height="132.804"/>
			
				<rect x="2340.625" y="1314.185" transform="matrix(-1 -1.224647e-16 1.224647e-16 -1 4714.7075 2802.8582)" style="fill:#A53D38;" width="33.457" height="174.488"/>
			
				<rect x="2006.308" y="1335.361" transform="matrix(-1 -1.224647e-16 1.224647e-16 -1 4046.0735 2824.1663)" style="fill:#A53D38;" width="33.457" height="153.445"/>
			
				<rect x="2139.995" y="1370.34" transform="matrix(-1 -1.224647e-16 1.224647e-16 -1 4313.4468 2859.0918)" style="fill:#F1A34F;" width="33.457" height="118.411"/>
			
				<rect x="2106.538" y="1290.666" transform="matrix(-1 -1.224647e-16 1.224647e-16 -1 4246.5322 2779.3389)" style="fill:#A53D38;" width="33.457" height="198.008"/>
			<polygon style="fill:#F1A34F;" points="1926.12,1477.888 1957.976,1488.391 2009.933,1322.258 1978.078,1311.755 			"/>
			
				<rect x="2043.768" y="1454.478" transform="matrix(-1 -1.224647e-16 1.224647e-16 -1 4112.8354 2938.1997)" style="fill:#A53D38;" width="25.299" height="29.244"/>
			
				<rect x="2111.425" y="1301.043" transform="matrix(-1 -1.224647e-16 1.224647e-16 -1 4248.3809 2609.0493)" style="fill:#F1A34F;" width="25.531" height="6.963"/>
			
				<rect x="2111.425" y="1312.764" transform="matrix(-1 -1.224647e-16 1.224647e-16 -1 4248.3809 2632.4912)" style="fill:#F1A34F;" width="25.531" height="6.963"/>
			
				<rect x="2076.146" y="1330.752" transform="matrix(-1 -1.224647e-16 1.224647e-16 -1 4180.2598 2664.9851)" style="fill:#FFFFFF;" width="27.968" height="3.481"/>
			<path style="fill:#35488B;" d="M2357.449,1352.608L2357.449,1352.608c6.826,0,12.359-5.533,12.359-12.359v-18.974h-24.719v18.974
				C2345.09,1347.074,2350.624,1352.608,2357.449,1352.608z"/>
			
				<rect x="2243.431" y="1307.349" transform="matrix(-1 -1.224647e-16 1.224647e-16 -1 4515.1782 2618.5266)" style="fill:#35488B;" width="28.316" height="3.83"/>
			
				<rect x="2276.544" y="1479.179" transform="matrix(-1 -1.224647e-16 1.224647e-16 -1 4581.2485 2964.3918)" style="fill:#35488B;" width="28.161" height="6.035"/>
			
				<rect x="2276.544" y="1471.133" transform="matrix(-1 -1.224647e-16 1.224647e-16 -1 4581.2485 2948.2998)" style="fill:#FFFFFF;" width="28.161" height="6.035"/>
			<path style="fill:#FFFFFF;" d="M2290.624,1465.717L2290.624,1465.717c6.73,0,12.185-5.456,12.185-12.185l0,0
				c0-6.73-5.456-12.185-12.185-12.185l0,0c-6.73,0-12.185,5.456-12.185,12.185l0,0
				C2278.439,1460.261,2283.895,1465.717,2290.624,1465.717z"/>
			
				<rect x="2311.613" y="1360.065" transform="matrix(-1 -1.224647e-16 1.224647e-16 -1 4647.8291 2778.8513)" style="fill:#A53D38;" width="24.603" height="58.721"/>
			
				<rect x="2210.782" y="1347.501" transform="matrix(-1 -1.224647e-16 1.224647e-16 -1 4447.8696 2701.0376)" style="fill:#FFFFFF;" width="26.305" height="6.035"/>
			
				<rect x="2210.486" y="1377.984" transform="matrix(-1 -1.224647e-16 1.224647e-16 -1 4447.2759 2762.0022)" style="fill:#FFFFFF;" width="26.305" height="6.035"/>
			<path style="fill:#FFFFFF;" d="M2014.498,1360.19h18.42c2.521,0,4.565-2.044,4.565-4.565l0,0c0-2.521-2.044-4.565-4.565-4.565
				h-18.42c-2.521,0-4.565,2.044-4.565,4.565l0,0C2009.933,1358.146,2011.977,1360.19,2014.498,1360.19z"/>
		</g>
		<g>
			<g>
				<rect x="578.176" y="1101.929" style="fill:#A53D38;" width="32.031" height="141.84"/>
				<rect x="834.215" y="1101.97" style="fill:#F1A34F;" width="32.031" height="141.84"/>
				<rect x="738.122" y="1096.866" style="fill:#35488B;" width="32.031" height="146.903"/>
				<rect x="610.207" y="1096.866" style="fill:#F1A34F;" width="32.031" height="146.903"/>
				<rect x="706.094" y="1116.663" style="fill:#A53D38;" width="32.031" height="127.106"/>
				<rect x="482.174" y="1051.814" style="fill:#35488B;" width="32.031" height="191.956"/>
				<rect x="802.184" y="1051.814" style="fill:#35488B;" width="32.031" height="191.956"/>
				<rect x="546.219" y="1065.165" style="fill:#35488B;" width="32.031" height="178.604"/>
				<rect x="514.188" y="1112.256" style="fill:#A53D38;" width="32.031" height="131.513"/>
				<rect x="450.143" y="1076.72" style="fill:#F1A34F;" width="32.031" height="167.05"/>
				<rect x="866.092" y="1076.463" style="fill:#35488B;" width="32.031" height="167.05"/>
				<rect x="770.153" y="1071.074" style="fill:#F1A34F;" width="32.031" height="172.695"/>
				<rect x="642.035" y="1065.165" style="fill:#35488B;" width="32.031" height="178.604"/>
				<rect x="674.066" y="1054.203" style="fill:#F1A34F;" width="32.031" height="189.566"/>
				<rect x="742.172" y="1105.148" style="fill:#F1A34F;" width="24.22" height="27.998"/>
				<rect x="677.178" y="1064.151" style="fill:#F1A34F;" width="24.442" height="6.666"/>
				<rect x="677.178" y="1075.373" style="fill:#F1A34F;" width="24.442" height="6.666"/>
				<path style="fill:#35488B;" d="M466.084,1113.518L466.084,1113.518c-6.535,0-11.832-5.298-11.832-11.832v-18.165h23.665v18.165
					C477.916,1108.22,472.619,1113.518,466.084,1113.518z"/>
				<rect x="548.133" y="1070.188" style="fill:#35488B;" width="27.109" height="3.666"/>
				<rect x="516.58" y="1234.693" style="fill:#35488B;" width="26.961" height="5.777"/>
				<rect x="516.58" y="1226.99" style="fill:#35488B;" width="26.961" height="5.777"/>
				<path style="fill:#35488B;" d="M530.06,1221.805L530.06,1221.805c-6.443,0-11.666-5.223-11.666-11.666v0
					c0-6.443,5.223-11.666,11.666-11.666l0,0c6.443,0,11.666,5.223,11.666,11.666v0
					C541.726,1216.582,536.503,1221.805,530.06,1221.805z"/>
				<rect x="486.412" y="1120.657" style="fill:#A53D38;" width="23.554" height="56.218"/>
				<rect x="581.315" y="1108.629" style="fill:#FFFFFF;" width="25.183" height="5.777"/>
				<rect x="581.6" y="1137.812" style="fill:#FFFFFF;" width="25.183" height="5.777"/>
				<path style="fill:#FFFFFF;" d="M794.415,1087.001h-17.635c-2.413,0-4.37-1.956-4.37-4.37l0,0c0-2.413,1.957-4.37,4.37-4.37
					h17.635c2.413,0,4.37,1.957,4.37,4.37l0,0C798.785,1085.045,796.829,1087.001,794.415,1087.001z"/>
			</g>
			<rect x="645.718" y="1218.7" style="fill:#FFFFFF;" width="24.665" height="21.771"/>
			<rect x="708.854" y="1232.767" style="fill:#A53D38;" width="26.117" height="4.814"/>
			<rect x="870.779" y="1148.729" style="fill:#A53D38;" width="23.044" height="7.513"/>
			<rect x="870.779" y="1160.951" style="fill:#A53D38;" width="23.044" height="7.513"/>
		</g>
		<g>
			
				<rect x="864.904" y="1316.032" transform="matrix(-1 -1.224647e-16 1.224647e-16 -1 1763.0269 2805.3076)" style="fill:#A53D38;" width="33.218" height="173.243"/>
			
				<rect x="649.443" y="1316.032" transform="matrix(-1 -1.224647e-16 1.224647e-16 -1 1332.1044 2805.3076)" style="fill:#A53D38;" width="33.219" height="173.243"/>
			
				<rect x="831.686" y="1292.681" transform="matrix(-1 -1.224647e-16 1.224647e-16 -1 1696.5898 2781.9561)" style="fill:#35488B;" width="33.218" height="196.595"/>
			
				<rect x="798.467" y="1336.926" transform="matrix(-1 -1.224647e-16 1.224647e-16 -1 1630.1527 2826.2009)" style="fill:#F1A34F;" width="33.219" height="152.35"/>
			
				<rect x="483.356" y="1336.926" transform="matrix(-1 -1.224647e-16 1.224647e-16 -1 999.9303 2826.2009)" style="fill:#A53D38;" width="33.218" height="152.35"/>
			
				<rect x="450.143" y="1316.032" transform="matrix(-1 -1.224647e-16 1.224647e-16 -1 933.504 2805.3076)" style="fill:#35488B;" width="33.219" height="173.243"/>
			
				<rect x="616.224" y="1304.049" transform="matrix(-1 -1.224647e-16 1.224647e-16 -1 1265.6672 2793.3247)" style="fill:#F1A34F;" width="33.218" height="185.226"/>
			
				<rect x="516.574" y="1304.049" transform="matrix(-1 -1.224647e-16 1.224647e-16 -1 1066.3673 2793.3247)" style="fill:#F1A34F;" width="33.218" height="185.226"/>
			
				<rect x="583.006" y="1292.681" transform="matrix(-1 -1.224647e-16 1.224647e-16 -1 1199.2302 2781.9561)" style="fill:#A53D38;" width="33.218" height="196.595"/>
			
				<rect x="549.787" y="1336.926" transform="matrix(-1 -1.224647e-16 1.224647e-16 -1 1132.7932 2826.2009)" style="fill:#35488B;" width="33.219" height="152.35"/>
			
				<rect x="765.249" y="1316.032" transform="matrix(-1 -1.224647e-16 1.224647e-16 -1 1563.7157 2805.3076)" style="fill:#A53D38;" width="33.218" height="173.243"/>
			<path style="fill:#F1A34F;" d="M682.656,1478.848l31.628,10.428l50.965-162.959c0.345-1.103-0.259-2.279-1.357-2.641
				l-27.609-9.103c-1.122-0.37-2.329,0.25-2.682,1.378L682.656,1478.848z"/>
			
				<rect x="867.609" y="1329.859" transform="matrix(-1 -1.224647e-16 1.224647e-16 -1 1763.0269 2667.3989)" style="fill:#F1A34F;" width="27.808" height="7.681"/>
			
				<rect x="867.609" y="1340.152" transform="matrix(-1 -1.224647e-16 1.224647e-16 -1 1763.0269 2683.5298)" style="fill:#F1A34F;" width="27.808" height="3.226"/>
			
				<rect x="767.954" y="1469.968" transform="matrix(-1 -1.224647e-16 1.224647e-16 -1 1563.7157 2947.6167)" style="fill:#F1A34F;" width="27.808" height="7.681"/>
			
				<rect x="767.954" y="1480.261" transform="matrix(-1 -1.224647e-16 1.224647e-16 -1 1563.7157 2963.7478)" style="fill:#F1A34F;" width="27.808" height="3.226"/>
			
				<rect x="653.852" y="1323.406" transform="matrix(-1 -1.224647e-16 1.224647e-16 -1 1331.6704 2745.4421)" style="fill:#F1A34F;" width="23.966" height="98.629"/>
			<path style="fill:#F1A34F;" d="M497.919,1363.35h3.38c3.988,0,7.22-3.233,7.22-7.221l0,0c0-3.988-3.233-7.221-7.22-7.221h-3.38
				c-3.988,0-7.22,3.233-7.22,7.221l0,0C490.699,1360.117,493.932,1363.35,497.919,1363.35z"/>
			
				<rect x="586.256" y="1304.049" transform="matrix(-1 -1.224647e-16 1.224647e-16 -1 1199.3964 2611.3247)" style="fill:#F1A34F;" width="26.885" height="3.226"/>
			
				<rect x="586.256" y="1310.041" transform="matrix(-1 -1.224647e-16 1.224647e-16 -1 1199.3964 2623.3076)" style="fill:#F1A34F;" width="26.885" height="3.226"/>
			
				<rect x="586.256" y="1316.032" transform="matrix(-1 -1.224647e-16 1.224647e-16 -1 1199.3964 2635.2905)" style="fill:#F1A34F;" width="26.885" height="3.226"/>
			
				<rect x="800.501" y="1347.833" transform="matrix(-1 -1.224647e-16 1.224647e-16 -1 1630.1527 2726.5457)" style="fill:#FFFFFF;" width="29.151" height="30.879"/>
			
				<rect x="800.501" y="1381.996" transform="matrix(-1 -1.224647e-16 1.224647e-16 -1 1630.1527 2768.1406)" style="fill:#FFFFFF;" width="29.151" height="4.148"/>
			
				<rect x="453.367" y="1480.107" transform="matrix(-1 -1.224647e-16 1.224647e-16 -1 934.1572 2965.0537)" style="fill:#FFFFFF;" width="27.423" height="4.839"/>
			
				<rect x="453.367" y="1472.042" transform="matrix(-1 -1.224647e-16 1.224647e-16 -1 934.1572 2948.9226)" style="fill:#FFFFFF;" width="27.423" height="4.839"/>
			
				<rect x="453.367" y="1441.854" transform="matrix(-1 -1.224647e-16 1.224647e-16 -1 934.1572 2909.9778)" style="fill:#FFFFFF;" width="27.423" height="26.271"/>
			<path style="fill:#A53D38;" d="M565.823,1427.858h1.152c7.254,0,13.135-5.881,13.135-13.135l0,0
				c0-7.254-5.881-13.135-13.135-13.135h-1.152c-7.254,0-13.135,5.881-13.135,13.135l0,0
				C552.688,1421.977,558.569,1427.858,565.823,1427.858z"/>
			
				<rect x="834.98" y="1469.968" transform="matrix(-1 -1.224647e-16 1.224647e-16 -1 1696.9215 2954.9143)" style="fill:#F1A34F;" width="26.962" height="14.979"/>
			
				<rect x="729.967" y="1334.991" transform="matrix(-0.9536 -0.3011 0.3011 -0.9536 1051.1038 2837.7571)" style="fill:#A53D38;" width="28.575" height="5.761"/>
			
				<rect x="618.364" y="1323.406" transform="matrix(-1 -1.224647e-16 1.224647e-16 -1 1265.9941 2651.1912)" style="fill:#A53D38;" width="29.266" height="4.378"/>
			
				<rect x="618.201" y="1317.415" transform="matrix(-1 -1.224647e-16 1.224647e-16 -1 1265.6674 2639.2083)" style="fill:#A53D38;" width="29.266" height="4.378"/>
			<path style="fill:#A53D38;" d="M632.997,1356.014L632.997,1356.014c8.082,0,14.633-6.552,14.633-14.633v-11.983h-29.266v11.983
				C618.364,1349.463,624.915,1356.014,632.997,1356.014z"/>
		</g>
		<g>
			<path style="fill:#699FF0;" d="M910.106,767.95v979.273H438.16V767.95H910.106z M450.143,1734.79h447.98V779.464h-447.98V1734.79
				z"/>
			
				<rect x="366.262" y="767.95" transform="matrix(-1 -1.224647e-16 1.224647e-16 -1 804.4214 2514.9233)" style="fill:#466AA5;" width="71.898" height="979.023"/>
			
				<rect x="443.69" y="998.247" transform="matrix(-1 -1.224647e-16 1.224647e-16 -1 1348.2654 2023.2246)" style="fill:#699FF0;" width="460.885" height="26.731"/>
			
				<rect x="443.69" y="1243.761" transform="matrix(-1 -1.224647e-16 1.224647e-16 -1 1348.2654 2514.2534)" style="fill:#699FF0;" width="460.885" height="26.731"/>
			
				<rect x="443.69" y="1489.275" transform="matrix(-1 -1.224647e-16 1.224647e-16 -1 1348.2654 3005.2822)" style="fill:#699FF0;" width="460.885" height="26.731"/>
		</g>
		<g>
			<rect x="582.923" y="845.998" style="fill:#35488B;" width="33.218" height="152.35"/>
			<rect x="748.799" y="845.998" style="fill:#35488B;" width="33.219" height="152.35"/>
			<rect x="616.141" y="845.998" style="fill:#A53D38;" width="33.219" height="152.35"/>
			<rect x="715.584" y="825.105" style="fill:#35488B;" width="33.219" height="173.243"/>
			<rect x="483.361" y="813.198" style="fill:#F1A34F;" width="33.218" height="185.226"/>
			<rect x="549.781" y="813.198" style="fill:#F1A34F;" width="33.219" height="185.226"/>
			<rect x="516.563" y="801.792" style="fill:#A53D38;" width="33.219" height="196.595"/>
			<rect x="450.143" y="825.105" style="fill:#A53D38;" width="33.219" height="173.243"/>
			<rect x="782.018" y="845.998" style="fill:#A53D38;" width="33.218" height="152.35"/>
			<rect x="649.149" y="813.122" style="fill:#F1A34F;" width="33.219" height="185.226"/>
			<rect x="682.368" y="801.753" style="fill:#A53D38;" width="33.218" height="196.595"/>
			<polygon style="fill:#F1A34F;" points="894.926,987.92 863.298,998.348 811.712,833.4 843.34,822.972 			"/>
			<rect x="753" y="854.854" style="fill:#F1A34F;" width="25.118" height="29.036"/>
			<rect x="685.595" y="812.337" style="fill:#F1A34F;" width="25.349" height="6.913"/>
			<rect x="685.595" y="823.974" style="fill:#F1A34F;" width="25.349" height="6.913"/>
			<rect x="718.203" y="841.834" style="fill:#FFFFFF;" width="27.768" height="3.457"/>
			<path style="fill:#35488B;" d="M466.675,863.534L466.675,863.534c-6.777,0-12.271-5.494-12.271-12.271v-18.839h24.542v18.839
				C478.946,858.04,473.452,863.534,466.675,863.534z"/>
			<rect x="551.766" y="818.597" style="fill:#35488B;" width="28.114" height="3.802"/>
			<rect x="519.043" y="989.202" style="fill:#35488B;" width="27.96" height="5.991"/>
			<rect x="519.043" y="981.213" style="fill:#35488B;" width="27.96" height="5.991"/>
			<path style="fill:#35488B;" d="M533.023,975.836L533.023,975.836c-6.682,0-12.098-5.417-12.098-12.098l0,0
				c0-6.682,5.417-12.098,12.098-12.098h0c6.682,0,12.098,5.417,12.098,12.098l0,0C545.122,970.419,539.705,975.836,533.023,975.836
				z"/>
			<rect x="487.757" y="870.938" style="fill:#A53D38;" width="24.427" height="58.302"/>
			<rect x="586.179" y="858.464" style="fill:#FFFFFF;" width="26.117" height="5.991"/>
			<rect x="586.474" y="888.729" style="fill:#FFFFFF;" width="26.117" height="5.991"/>
			<path style="fill:#FFFFFF;" d="M807.18,871.061h-18.289c-2.503,0-4.532-2.029-4.532-4.532l0,0c0-2.503,2.029-4.532,4.532-4.532
				h18.289c2.503,0,4.532,2.029,4.532,4.532l0,0C811.712,869.032,809.683,871.061,807.18,871.061z"/>
		</g>
		<g>
			
				<rect x="2682.701" y="1372.59" transform="matrix(-1 -1.224647e-16 1.224647e-16 -1 5391.8643 2883.1919)" style="fill:#A53D38;" width="26.463" height="138.012"/>
			
				<rect x="2511.057" y="1372.59" transform="matrix(-1 -1.224647e-16 1.224647e-16 -1 5048.5762 2883.1919)" style="fill:#A53D38;" width="26.463" height="138.012"/>
			
				<rect x="2656.238" y="1353.988" transform="matrix(-1 -1.224647e-16 1.224647e-16 -1 5338.9385 2864.5894)" style="fill:#F1A34F;" width="26.463" height="156.614"/>
			
				<rect x="2629.774" y="1389.235" transform="matrix(-1 -1.224647e-16 1.224647e-16 -1 5286.0122 2899.8364)" style="fill:#35488B;" width="26.463" height="121.367"/>
			
				<rect x="2484.594" y="1363.044" transform="matrix(-1 -1.224647e-16 1.224647e-16 -1 4995.6499 2873.6458)" style="fill:#F1A34F;" width="26.463" height="147.558"/>
			
				<rect x="2457.264" y="1353.988" transform="matrix(-1 -1.224647e-16 1.224647e-16 -1 4941.8574 2864.5894)" style="fill:#A53D38;" width="27.329" height="156.614"/>
			
				<rect x="2603.312" y="1372.59" transform="matrix(-1 -1.224647e-16 1.224647e-16 -1 5233.0859 2883.1919)" style="fill:#A53D38;" width="26.463" height="138.012"/>
			<path style="fill:#F1A34F;" d="M2537.615,1502.295l25.196,8.307l40.434-129.288c0.367-1.174-0.276-2.424-1.443-2.809
				l-20.92-6.897c-1.193-0.393-2.478,0.266-2.853,1.466L2537.615,1502.295z"/>
			
				<rect x="2684.856" y="1383.605" transform="matrix(-1 -1.224647e-16 1.224647e-16 -1 5391.8643 2773.3289)" style="fill:#F1A34F;" width="22.153" height="6.119"/>
			
				<rect x="2684.856" y="1391.805" transform="matrix(-1 -1.224647e-16 1.224647e-16 -1 5391.8643 2786.1794)" style="fill:#F1A34F;" width="22.153" height="2.57"/>
			
				<rect x="2605.466" y="1495.221" transform="matrix(-1 -1.224647e-16 1.224647e-16 -1 5233.0859 2996.5605)" style="fill:#F1A34F;" width="22.153" height="6.119"/>
			
				<rect x="2605.466" y="1503.421" transform="matrix(-1 -1.224647e-16 1.224647e-16 -1 5233.0859 3009.4111)" style="fill:#F1A34F;" width="22.153" height="2.57"/>
			
				<rect x="2514.569" y="1378.465" transform="matrix(-1 -1.224647e-16 1.224647e-16 -1 5048.2305 2835.501)" style="fill:#F1A34F;" width="19.092" height="78.572"/>
			
				<rect x="2460.719" y="1363.044" transform="matrix(-1 -1.224647e-16 1.224647e-16 -1 4942.8564 2728.6582)" style="fill:#F1A34F;" width="21.417" height="2.57"/>
			
				<rect x="2460.719" y="1367.817" transform="matrix(-1 -1.224647e-16 1.224647e-16 -1 4942.8564 2738.2043)" style="fill:#F1A34F;" width="21.417" height="2.57"/>
			
				<rect x="2460.719" y="1372.59" transform="matrix(-1 -1.224647e-16 1.224647e-16 -1 4942.8564 2747.7502)" style="fill:#F1A34F;" width="21.417" height="2.57"/>
			
				<rect x="2631.395" y="1397.924" transform="matrix(-1 -1.224647e-16 1.224647e-16 -1 5286.0122 2820.4475)" style="fill:#FFFFFF;" width="23.223" height="24.6"/>
			
				<rect x="2631.395" y="1425.14" transform="matrix(-1 -1.224647e-16 1.224647e-16 -1 5286.0122 2853.5835)" style="fill:#FFFFFF;" width="23.223" height="3.304"/>
			
				<rect x="2658.862" y="1495.221" transform="matrix(-1 -1.224647e-16 1.224647e-16 -1 5339.2026 3002.3738)" style="fill:#A53D38;" width="21.479" height="11.933"/>
			
				<rect x="2574.661" y="1387.521" transform="matrix(-0.9536 -0.3011 0.3011 -0.9536 4633.5571 3493.8325)" style="fill:#A53D38;" width="22.764" height="4.589"/>
			
				<rect x="2486.298" y="1378.465" transform="matrix(-1 -1.224647e-16 1.224647e-16 -1 4995.9106 2760.4172)" style="fill:#A53D38;" width="23.315" height="3.488"/>
			
				<rect x="2486.168" y="1373.692" transform="matrix(-1 -1.224647e-16 1.224647e-16 -1 4995.6499 2750.8711)" style="fill:#A53D38;" width="23.315" height="3.488"/>
			<path style="fill:#A53D38;" d="M2497.955,1404.441L2497.955,1404.441c6.438,0,11.657-5.219,11.657-11.657v-9.546h-23.314v9.546
				C2486.298,1399.222,2491.517,1404.441,2497.955,1404.441z"/>
		</g>
		<rect x="2720.201" y="849.127" style="fill:#466AA5;" width="65.932" height="899.113"/>
		<rect x="2422.032" y="1060.315" style="fill:#699FF0;" width="293.096" height="24.513"/>
		<rect x="2422.032" y="1284.835" style="fill:#699FF0;" width="293.096" height="25.137"/>
		<rect x="2422.032" y="1510.299" style="fill:#699FF0;" width="293.096" height="24.816"/>
		<path style="fill:#699FF0;" d="M1914.137,767.348v979.393h471.946V767.348H1914.137z M2374.101,1734.188h-447.98V778.861h447.98
			V1734.188z"/>
		<rect x="2386.083" y="767.348" style="fill:#466AA5;" width="71.898" height="979.738"/>
		<rect x="1919.668" y="997.644" style="fill:#699FF0;" width="460.885" height="26.731"/>
		<rect x="1919.668" y="1243.159" style="fill:#699FF0;" width="460.885" height="26.731"/>
		<rect x="1919.668" y="1488.673" style="fill:#699FF0;" width="460.885" height="26.731"/>
		<polygon style="fill:#699FF0;" points="2457.981,849.127 2457.981,859.685 2709.212,859.685 2709.212,1735.745 2457.981,1735.745 
			2457.981,1747.519 2720.2,1747.519 2720.2,849.127 		"/>
		<g>
			<path style="fill:#E49963;" d="M1364.359,1556.349c0.01,3.628,1.796,6.125,4.835,7.799c0.01,0.01,0.028,0.019,0.047,0.019
				c5.621,3.096,15.487,3.405,26.224,2.936c1.375-0.056,2.609-0.093,3.713-0.093c0.29,0,0.58,0,0.86,0.009
				c0.224,0,0.449,0.009,0.664,0.009c10.624,0.262,9.502,3.442,29.693,5.172c23.016,1.964,31.498-5.079,32.854-8.287
				c1.141-2.721-8.735-5.808-19.77-9.333c-0.533-0.168-1.066-0.346-1.609-0.515c-1.469-0.467-2.946-0.953-4.414-1.43
				c-13.14-4.368-26.074-9.549-29.3-22.848c-3.423-14.103,6.864-53.466,6.864-53.466l-36.473-3.938c0,0-3.516,41.15-5.808,53.971
				c-1.234,6.847-4.339,12.289-6.154,18.153c-0.13,0.412-0.252,0.824-0.365,1.235
				C1365.285,1549.185,1364.35,1552.71,1364.359,1556.349z"/>
			<path style="fill:#C65447;" d="M1364.359,1556.349c0.01,3.628,1.796,6.125,4.835,7.799c0.01,0.01,0.028,0.019,0.047,0.019
				c5.985,2.768,15.693,3.17,26.205,2.871c1.375-0.037,2.61-0.046,3.732-0.027c0.29,0,0.58,0,0.86,0.009
				c0.224,0,0.449,0.009,0.664,0.009c10.624,0.262,9.502,3.442,29.693,5.172c23.016,1.964,31.498-5.079,32.854-8.287
				c1.141-2.721-8.735-5.808-19.77-9.333c-3.096,1.197-17.854,6.322-35.314,3.011c-15.356-2.889-30.61-10.53-41.58-13.084
				c-0.13,0.412-0.252,0.824-0.365,1.235C1365.285,1549.185,1364.35,1552.71,1364.359,1556.349z"/>
			<path style="fill:#E49963;" d="M1601.033,1509.792c2.026,10.13,16.465,8.439,32.596,4.497
				c16.132-3.942,12.297,0.745,35.256-1.797c22.959-2.542,29.913-11.103,30.614-14.516c0.627-3.029-10.717-4.098-22.885-5.499
				c-1.53-0.171-3.067-0.361-4.604-0.55c-13.738-1.724-23.799-10.59-36.277-17.869c-11.821-6.896-29.46-34.993-29.46-34.993
				l-31.486,2.493c0,0,16.522,25.096,22.913,36.007c3.759,6.417,3.559,14.903,3.09,21.456
				C1600.547,1502.584,1600.315,1506.224,1601.033,1509.792z"/>
			<path style="fill:#C65447;" d="M1633.63,1514.29c16.132-3.942,12.297,0.745,35.256-1.797
				c22.959-2.542,29.913-11.103,30.614-14.516c0.627-3.029-10.717-4.098-22.885-5.499l-0.113,0.234c0,0-13.768,9.762-32.88,10.22
				c-15.576,0.379-32.074-4.083-42.831-3.909c-0.244,3.562-0.476,7.202,0.243,10.77
				C1603.06,1519.922,1617.498,1518.231,1633.63,1514.29z"/>
			<path style="fill:#FFB27D;" d="M1530.975,1047.342c0,0,7.502-18.379,15.754-19.129c8.252-0.75,34.508-4.876,36.383-1.125
				c1.876,3.751,0,17.254-5.626,22.13c-5.626,4.876-40.509,12.754-40.509,12.754L1530.975,1047.342z"/>
			<path style="fill:#365DA4;" d="M1480.371,1308.463l-67.858,182.618c0,0-10.424,1.01-20.419-1.87
				c-9.197-2.649-19.736-9.61-19.736-9.61s16.833-175.346,47.694-211.818C1450.914,1231.312,1480.371,1308.463,1480.371,1308.463z"
				/>
			<path style="fill:#466AA5;" d="M1211.976,1234.585c0,0,194.984-65.93,238.47-51.903
				c43.486,14.028,174.051,273.796,174.051,273.796s-2.944,3.919-10.989,6.937c-7.482,2.806-25.591,2.626-25.591,2.626
				s-117.832-101-131.86-130.457c-14.028-29.458-19.639-57.513-33.666-54.708s-180.957,68.736-218.831,29.458
				c-37.875-39.278-27.969-90.309-27.969-90.309L1211.976,1234.585z"/>
			<path style="fill:#35488B;" d="M1331.132,927.871c3.112-6.429,6.595-17.848,8.299-38.203c-0.262,2.02-3.771,27.694-13.643,42.226
				c-40.551,26.623-118.275,115.52-116.737,132.364c0,0-27.378-46.434-27.849-46.712c0,0-50.502-64.218,9.352-101.004
				c30.42-18.695,30.266-42.69,28.995-63.533c-1.281-20.846,8.297-110.573,69.235-87.091c0,0,9.778-4.346,14.159-3.694
				c0,0-3.578,0.684-5.397,2.562c7.065-0.418,17.165,0.105,25.593,4.896C1345.479,782.376,1365.469,896.268,1331.132,927.871z"/>
			<path style="fill:#FFB27D;" d="M1323.387,933.219c0.203,0.091-19.579,10.363-34.459,6.293
				c-13.997-3.817-23.142-21.965-22.949-22.005c5.928-1.177,7.637-9.323,7.511-44.325l2.68,0.528l45.056,8.922
				c0,0-1.025,14.179-1.055,27.537C1320.139,921.384,1320.819,932.022,1323.387,933.219z"/>
			<path style="fill:#E8945B;" d="M1321.225,882.632c0,0-1.025,14.179-1.055,27.537c-25.213-0.711-38.54-23.71-44-36.459
				L1321.225,882.632z"/>
			<path style="fill:#35488B;" d="M1271.517,868.805c0,0-13.213-20.877-16.384-38.728c-2.264-12.745,4.227-59.986,51.699-53.182
				c0,0,13.788,1.358,26.748,10.112c10.307,6.961,25.182,21.99,8.55,63.213l-4.32,13.926L1271.517,868.805z"/>
			<path style="fill:#FFB27D;" d="M1329.645,895.281c0,0-59.652,0.984-59.693-36.174c-0.041-37.158-7.768-62.056,30.317-64.255
				c38.085-2.2,45.501,11.971,48.531,24.37C1351.83,831.621,1345.161,894.067,1329.645,895.281z"/>
			<path style="fill:#35488B;" d="M1273.318,801.775c0,0,40.743-27.857,53.634-8.594c3.908-3.351,10.869-5.777,20.074,5.381
				c13.829,16.762,1.524,46.392,1.524,46.392c-5.677,0.662-7.015-18.817-9.989-28.278c-2.243-7.136-9.729-14.423-13.276-17.576
				c-5.204,11.732-19.52,39.809-39.246,44.881c-25.065,6.446-35.938-0.27-35.938-0.27S1269.328,828.436,1273.318,801.775z"/>
			<path style="fill:#699DEE;" d="M1190.554,1093.703c-5.883-24.671,14.131-72.545,35.024-112.18
				c18.957-35.922,38.634-65.063,40.402-64.016c49.997,29.674,54.514,5.003,54.514,5.003s45.415,6.032,58.274,28.169
				c17.788,30.61,37.156,122.467,56.188,121.111c8.735-0.626,96.646-33.667,96.646-33.667s14.646,13.72,11.84,30.554
				c0,0-43.404,29.066-80.112,47.612c-19.415,9.81-36.96,16.675-45.209,14.729c-16.722-3.937-42.842-42.702-56.955-65.522
				c-0.032-0.051-0.062-0.101-0.094-0.152c-18.015,101.965,6.479,125.186-5.92,135.938c-13.093,11.354-31.797-5.406-72.947,12.429
				c-26.99,11.709-64.446,28.637-89.66,31.583c-13.224,1.552-23.091-0.749-26.308-9.68
				C1156.886,1209.661,1201.777,1140.735,1190.554,1093.703z"/>
			<path style="fill:#FFFFFF;" d="M1316.385,872.755c0,0,1.111,4.721,12.854,3.993c0,0,9.86-0.609,9.558-5.797
				C1338.797,870.95,1329.237,867.26,1316.385,872.755z"/>
			<path style="fill:#3B76CA;" d="M1166.238,1235.614c3.217,8.931,13.084,11.231,26.308,9.68c17.452-7.604,92.84-36.811,91.998-56.6
				c-1.253-29.301-14.496-30.236-5.144-66.401c7.51-29.039-43.541-88.745-54.651-100.482
				c-20.893,39.635-40.078,47.221-34.195,71.892C1201.777,1140.735,1156.886,1209.661,1166.238,1235.614z"/>
			<path style="fill:#3B76CA;" d="M1361.167,1065.496c14.112,22.82,40.233,61.585,56.955,65.522
				c8.249,1.945,25.793-4.919,45.209-14.729c-14.169,3.656-27.935,3.554-41.309,2.263c-14.496-1.403-18.704-19.172-41.617-45.826
				C1365.543,1055.443,1361.896,1059.792,1361.167,1065.496z"/>
			<path style="fill:#FFB27D;" d="M1291.324,1121.591c0,0,12.625-9.82,24.55-7.481c11.924,2.338,17.769,10.521,17.301,14.262
				c-0.467,3.74-6.78,14.262-15.899,15.197c-9.118,0.934-35.07-5.611-35.07-5.611L1291.324,1121.591z"/>
			<path style="fill:#699DEE;" d="M1265.979,917.507c0,0-48.619,2.995-65.45,26.47c-23.692,33.045-64.841,167.952-53.619,198.813
				l147.921-0.624c0,0,3.585-16.755-1.403-24.862c-4.988-8.105-86.04-21.198-89.781-24.939c-3.741-3.74,46.761-72.947,46.761-84.17
				C1250.408,996.973,1265.979,917.507,1265.979,917.507z"/>
		</g>
		<g>
			<polygon style="fill:#A53D38;" points="862.995,1749.818 1788.115,1749.818 1788.115,1446.005 862.995,1442.975 			"/>
			<rect x="862.995" y="1199.989" style="fill:#B64C41;" width="925.119" height="79.451"/>
		</g>
		<path style="fill:#A53D38;" d="M1809.286,1199.989H843.578c-14.127,0-25.578-11.452-25.578-25.578v-6.109
			c0-14.126,11.451-25.578,25.578-25.578h965.708c14.126,0,25.578,11.452,25.578,25.578v6.109
			C1834.864,1188.537,1823.412,1199.989,1809.286,1199.989z"/>
		<polygon style="fill:#F1A34F;" points="875.279,1442.975 1775.831,1446.005 1775.831,1279.44 875.279,1279.44 		"/>
		<g>
			<g>
				<polygon style="fill:#35488B;" points="1019.972,1004.968 1049.62,1142.723 934.067,1142.723 908.691,1007.48 911.487,1004.968 
									"/>
				<polygon style="fill:#82B378;" points="1023.252,1004.968 1052.901,1142.723 937.347,1142.723 911.5,1004.968 				"/>
				<polygon style="fill:#FFFFFF;" points="1019.28,1009.353 1046.059,1133.777 941.688,1133.777 918.342,1009.353 				"/>
			</g>
			<g>
				<path style="fill:#82B378;" d="M932.026,1019.345h79.442c1.463,0,2.661,1.197,2.661,2.661c0,1.463-1.198,2.66-2.661,2.66
					h-79.442c-1.464,0-2.661-1.198-2.661-2.66C929.366,1020.542,930.563,1019.345,932.026,1019.345z"/>
				<path style="fill:#82B378;" d="M936.081,1031.889h79.442c1.464,0,2.661,1.197,2.661,2.66c0,1.464-1.197,2.661-2.661,2.661
					h-79.442c-1.464,0-2.661-1.197-2.661-2.661C933.42,1033.086,934.617,1031.889,936.081,1031.889z"/>
				<path style="fill:#82B378;" d="M938.615,1043.925h79.442c1.464,0,2.661,1.197,2.661,2.661c0,1.464-1.197,2.661-2.661,2.661
					h-79.442c-1.464,0-2.661-1.197-2.661-2.661C935.954,1045.122,937.151,1043.925,938.615,1043.925z"/>
				<path style="fill:#82B378;" d="M942.289,1068.744h79.442c1.464,0,2.661,1.197,2.661,2.661c0,1.464-1.197,2.661-2.661,2.661
					h-79.442c-1.464,0-2.661-1.197-2.661-2.661C939.628,1069.941,940.826,1068.744,942.289,1068.744z"/>
				<path style="fill:#82B378;" d="M946.344,1081.287h79.442c1.464,0,2.661,1.197,2.661,2.661c0,1.464-1.197,2.661-2.661,2.661
					h-79.442c-1.464,0-2.661-1.197-2.661-2.661C943.683,1082.484,944.88,1081.287,946.344,1081.287z"/>
				<path style="fill:#82B378;" d="M948.878,1093.324h79.442c1.464,0,2.661,1.197,2.661,2.661c0,1.463-1.197,2.66-2.661,2.66
					h-79.442c-1.464,0-2.661-1.197-2.661-2.66C946.217,1094.521,947.414,1093.324,948.878,1093.324z"/>
			</g>
			<g>
				
					<rect x="1077.805" y="1080.936" transform="matrix(0.9574 -0.2888 0.2888 0.9574 -274.8069 359.1272)" style="fill:#35488B;" width="3.295" height="59.55"/>
				<path style="fill:#699FF0;" d="M1087.427,1133.25c5.907,0,10.773,4.129,11.519,9.472h-23.037
					C1076.655,1137.379,1081.521,1133.25,1087.427,1133.25z"/>
				<g>
					<path style="fill:#699FF0;" d="M1072.333,1141.195c4.407,0,8.792-0.732,9.139-0.791l-0.128-0.749
						c-4.405,0.751-16.129,1.894-17.442-1.796c-0.583-1.636-0.038-4.392,0.717-8.208c1.374-6.942,3.448-17.432,1.01-32.067
						c-1.91-11.457-0.491-14.927,1.036-15.82c1.597-0.937,3.748,0.773,3.769,0.79l0.477-0.592c-0.105-0.085-2.589-2.051-4.63-0.854
						c-2.521,1.474-2.993,7.059-1.403,16.6c2.417,14.499,0.357,24.908-1.005,31.795c-0.779,3.935-1.341,6.778-0.688,8.611
						C1064.055,1140.553,1068.204,1141.195,1072.333,1141.195z"/>
				</g>
			</g>
		</g>
		<g>
			<path style="fill:#A53D38;" d="M1006.267,1372.92l15.086,4.783c-2.313,8.411-6.159,14.658-11.538,18.741
				s-12.204,6.124-20.474,6.124c-10.233,0-18.643-3.495-25.232-10.487c-6.589-6.992-9.883-16.549-9.883-28.675
				c0-12.826,3.312-22.788,9.935-29.885c6.623-7.096,15.332-10.644,26.126-10.644c9.426,0,17.084,2.786,22.971,8.358
				c3.504,3.295,6.133,8.026,7.885,14.193l-15.402,3.68c-0.912-3.995-2.812-7.149-5.703-9.462c-2.891-2.313-6.405-3.47-10.54-3.47
				c-5.713,0-10.348,2.051-13.903,6.151c-3.557,4.1-5.336,10.742-5.336,19.922c0,9.743,1.753,16.682,5.257,20.816
				c3.503,4.135,8.06,6.203,13.667,6.203c4.135,0,7.692-1.314,10.671-3.943C1002.832,1382.697,1004.97,1378.563,1006.267,1372.92z"
				/>
			<path style="fill:#A53D38;" d="M1034.232,1401.253v-77.062h15.56v77.062H1034.232z"/>
			<path style="fill:#A53D38;" d="M1081.963,1401.253v-64.026h-22.867v-13.036h61.24v13.036h-22.814v64.026H1081.963z"/>
			<path style="fill:#A53D38;" d="M1150.614,1401.253v-32.433l-28.228-44.629h18.24l18.136,30.489l17.767-30.489h17.925
				l-28.334,44.734v32.329H1150.614z"/>
			<path style="fill:#A53D38;" d="M1230.567,1401.253v-76.431h15.56v63.447h38.688v12.984H1230.567z"/>
			<path style="fill:#A53D38;" d="M1295.434,1401.253v-77.062h15.56v77.062H1295.434z"/>
			<path style="fill:#A53D38;" d="M1325.869,1324.191h30.805c6.098,0,10.644,0.255,13.64,0.763c2.997,0.509,5.677,1.569,8.043,3.18
				c2.366,1.612,4.337,3.758,5.914,6.439c1.577,2.682,2.366,5.686,2.366,9.015c0,3.61-0.973,6.921-2.917,9.935
				c-1.945,3.015-4.583,5.275-7.912,6.781c4.695,1.367,8.305,3.698,10.829,6.992c2.523,3.295,3.784,7.167,3.784,11.617
				c0,3.504-0.815,6.912-2.444,10.224c-1.63,3.312-3.855,5.958-6.677,7.937c-2.821,1.98-6.299,3.199-10.434,3.654
				c-2.594,0.281-8.849,0.456-18.767,0.526h-26.231V1324.191z M1341.43,1337.018v17.82h10.198c6.062,0,9.83-0.087,11.302-0.263
				c2.663-0.315,4.757-1.235,6.281-2.76c1.525-1.524,2.286-3.529,2.286-6.018c0-2.383-0.657-4.319-1.97-5.809
				c-1.314-1.489-3.268-2.392-5.862-2.707c-1.542-0.176-5.975-0.263-13.299-0.263H1341.43z M1341.43,1367.664v20.606h14.403
				c5.607,0,9.164-0.157,10.672-0.473c2.313-0.421,4.196-1.446,5.65-3.076c1.454-1.629,2.182-3.81,2.182-6.544
				c0-2.313-0.561-4.275-1.682-5.887s-2.743-2.786-4.863-3.522c-2.12-0.735-6.72-1.104-13.799-1.104H1341.43z"/>
			<path style="fill:#A53D38;" d="M1403.616,1401.253v-77.062h32.749c8.235,0,14.219,0.692,17.952,2.077
				c3.732,1.385,6.719,3.846,8.962,7.385c2.242,3.54,3.365,7.588,3.365,12.143c0,5.783-1.7,10.557-5.099,14.324
				c-3.399,3.767-8.481,6.142-15.244,7.123c3.365,1.962,6.142,4.118,8.332,6.465c2.19,2.349,5.143,6.518,8.858,12.511l9.41,15.034
				h-18.609l-11.248-16.768c-3.995-5.993-6.729-9.769-8.2-11.329c-1.472-1.559-3.032-2.629-4.678-3.206
				c-1.648-0.578-4.259-0.868-7.832-0.868h-3.154v32.171H1403.616z M1419.176,1356.782h11.512c7.464,0,12.124-0.316,13.982-0.946
				c1.857-0.631,3.312-1.717,4.363-3.26c1.051-1.542,1.577-3.469,1.577-5.783c0-2.593-0.692-4.686-2.077-6.281
				c-1.384-1.594-3.338-2.602-5.861-3.023c-1.262-0.175-5.046-0.263-11.355-0.263h-12.142V1356.782z"/>
			<path style="fill:#A53D38;" d="M1550.802,1401.253h-16.927l-6.728-17.505h-30.805l-6.361,17.505h-16.505l30.015-77.062h16.453
				L1550.802,1401.253z M1522.153,1370.765l-10.618-28.596l-10.409,28.596H1522.153z"/>
			<path style="fill:#A53D38;" d="M1559.107,1401.253v-77.062h32.749c8.235,0,14.219,0.692,17.952,2.077
				c3.732,1.385,6.719,3.846,8.962,7.385c2.242,3.54,3.365,7.588,3.365,12.143c0,5.783-1.7,10.557-5.099,14.324
				c-3.399,3.767-8.481,6.142-15.244,7.123c3.365,1.962,6.142,4.118,8.332,6.465c2.19,2.349,5.143,6.518,8.858,12.511l9.409,15.034
				h-18.609l-11.248-16.768c-3.995-5.993-6.729-9.769-8.201-11.329c-1.472-1.559-3.032-2.629-4.678-3.206
				c-1.648-0.578-4.259-0.868-7.832-0.868h-3.154v32.171H1559.107z M1574.667,1356.782h11.512c7.464,0,12.124-0.316,13.982-0.946
				c1.857-0.631,3.312-1.717,4.363-3.26c1.051-1.542,1.577-3.469,1.577-5.783c0-2.593-0.692-4.686-2.077-6.281
				c-1.385-1.594-3.338-2.602-5.861-3.023c-1.262-0.175-5.046-0.263-11.355-0.263h-12.142V1356.782z"/>
			<path style="fill:#A53D38;" d="M1653.044,1401.253v-32.433l-28.228-44.629h18.24l18.136,30.489l17.767-30.489h17.925
				l-28.334,44.734v32.329H1653.044z"/>
		</g>
		<rect x="1926.12" y="824.401" style="fill:#A53D38;" width="33.219" height="173.243"/>
		<rect x="2141.582" y="824.401" style="fill:#A53D38;" width="33.218" height="173.243"/>
		<rect x="1959.339" y="801.05" style="fill:#F1A34F;" width="33.218" height="196.595"/>
		<rect x="1992.558" y="845.295" style="fill:#35488B;" width="33.218" height="152.35"/>
		<rect x="2307.669" y="845.295" style="fill:#A53D38;" width="33.218" height="152.35"/>
		<rect x="2340.882" y="824.401" style="fill:#35488B;" width="33.218" height="173.243"/>
		<rect x="2174.8" y="812.418" style="fill:#F1A34F;" width="33.218" height="185.226"/>
		<rect x="2274.45" y="812.418" style="fill:#F1A34F;" width="33.219" height="185.226"/>
		<rect x="2208.019" y="801.05" style="fill:#A53D38;" width="33.219" height="196.595"/>
		<rect x="2241.237" y="845.295" style="fill:#35488B;" width="33.218" height="152.35"/>
		<rect x="2025.776" y="824.401" style="fill:#A53D38;" width="33.219" height="173.243"/>
		<polygon style="fill:#F1A34F;" points="2142.209,987.217 2110.582,997.644 2058.995,832.697 2090.623,822.269 		"/>
		<rect x="1928.826" y="838.228" style="fill:#F1A34F;" width="27.808" height="7.681"/>
		<rect x="1928.826" y="848.521" style="fill:#F1A34F;" width="27.808" height="3.226"/>
		<rect x="2028.481" y="978.337" style="fill:#F1A34F;" width="27.808" height="7.681"/>
		<rect x="2028.481" y="988.63" style="fill:#F1A34F;" width="27.808" height="3.226"/>
		
			<rect x="1694.221" y="1039.492" transform="matrix(-1.836970e-16 1 -1 -1.836970e-16 2836.9441 -584.7172)" style="fill:#F1A34F;" width="33.218" height="173.243"/>
		
			<rect x="1625.772" y="1122.273" transform="matrix(-1.836970e-16 1 -1 -1.836970e-16 2765.7896 -513.5626)" style="fill:#35488B;" width="27.808" height="7.681"/>
		
			<rect x="1617.706" y="1124.5" transform="matrix(-1.836970e-16 1 -1 -1.836970e-16 2757.7241 -505.4972)" style="fill:#35488B;" width="27.808" height="3.226"/>
		
			<rect x="1711.735" y="1006.273" transform="matrix(-1.836970e-16 1 -1 -1.836970e-16 2821.2393 -635.4493)" style="fill:#A53D38;" width="33.219" height="173.243"/>
		<path style="fill:#F1A34F;" d="M1793.573,1102.958v-20.127c0-2.121,1.72-3.841,3.841-3.841l0,0c2.121,0,3.841,1.72,3.841,3.841
			v20.127c0,2.121-1.72,3.841-3.841,3.841l0,0C1795.293,1106.799,1793.573,1105.079,1793.573,1102.958z"/>
		
			<rect x="1775.444" y="1091.282" transform="matrix(-1.836970e-16 1 -1 -1.836970e-16 2882.2434 -696.4535)" style="fill:#F1A34F;" width="27.808" height="3.226"/>
		
			<rect x="1791.652" y="1091.282" transform="matrix(-1.836970e-16 1 -1 -1.836970e-16 2898.4512 -712.6613)" style="fill:#F1A34F;" width="27.808" height="3.226"/>
		
			<rect x="1679.473" y="973.055" transform="matrix(-1.836970e-16 1 -1 -1.836970e-16 2755.7588 -636.406)" style="fill:#35488B;" width="33.218" height="173.243"/>
		<path style="fill:#F1A34F;" d="M1615.249,1073.58v-27.808h53.468c7.679,0,13.904,6.225,13.904,13.904v0
			c0,7.679-6.225,13.904-13.904,13.904H1615.249z"/>
		<rect x="2146.425" y="831.775" style="fill:#F1A34F;" width="23.966" height="98.629"/>
		<path style="fill:#F1A34F;" d="M2326.324,871.719h-3.38c-3.988,0-7.22-3.233-7.22-7.22l0,0c0-3.988,3.233-7.221,7.22-7.221h3.38
			c3.988,0,7.22,3.233,7.22,7.221l0,0C2333.544,868.486,2330.312,871.719,2326.324,871.719z"/>
		<rect x="2211.103" y="812.418" style="fill:#F1A34F;" width="26.885" height="3.226"/>
		<rect x="2211.103" y="818.41" style="fill:#F1A34F;" width="26.885" height="3.226"/>
		<rect x="2211.103" y="824.401" style="fill:#F1A34F;" width="26.885" height="3.226"/>
		<rect x="1994.591" y="856.202" style="fill:#FFFFFF;" width="29.151" height="30.879"/>
		<rect x="1994.591" y="890.365" style="fill:#FFFFFF;" width="29.151" height="4.148"/>
		<rect x="2343.453" y="988.476" style="fill:#FFFFFF;" width="27.423" height="4.839"/>
		<rect x="2343.453" y="980.411" style="fill:#FFFFFF;" width="27.423" height="4.839"/>
		<rect x="2343.453" y="950.223" style="fill:#FFFFFF;" width="27.423" height="26.271"/>
		<path style="fill:#A53D38;" d="M2258.42,936.227h-1.152c-7.254,0-13.135-5.881-13.135-13.135l0,0
			c0-7.254,5.881-13.135,13.135-13.135h1.152c7.254,0,13.135,5.881,13.135,13.135l0,0
			C2271.555,930.346,2265.674,936.227,2258.42,936.227z"/>
		<rect x="1962.302" y="978.337" style="fill:#A53D38;" width="26.962" height="14.979"/>
		
			<rect x="2066.385" y="843.144" transform="matrix(0.9536 -0.3011 0.3011 0.9536 -158.1827 665.7944)" style="fill:#A53D38;" width="28.575" height="5.761"/>
		<rect x="2176.613" y="831.775" style="fill:#A53D38;" width="29.266" height="4.378"/>
		<rect x="2176.777" y="825.784" style="fill:#A53D38;" width="29.266" height="4.378"/>
		<path style="fill:#A53D38;" d="M2191.246,864.383L2191.246,864.383c-8.082,0-14.633-6.551-14.633-14.633v-11.983h29.266v11.983
			C2205.879,857.831,2199.328,864.383,2191.246,864.383z"/>
		<g>
			<rect x="2058.673" y="1090.771" style="fill:#35488B;" width="33.219" height="152.35"/>
			<rect x="2224.55" y="1090.771" style="fill:#35488B;" width="33.218" height="152.35"/>
			<rect x="2091.892" y="1090.771" style="fill:#A53D38;" width="33.218" height="152.35"/>
			<rect x="2191.334" y="1069.877" style="fill:#35488B;" width="33.219" height="173.243"/>
			<rect x="1959.112" y="1057.971" style="fill:#F1A34F;" width="33.218" height="185.226"/>
			<rect x="2025.532" y="1057.971" style="fill:#F1A34F;" width="33.219" height="185.226"/>
			<rect x="1992.314" y="1046.564" style="fill:#A53D38;" width="33.218" height="196.595"/>
			<rect x="1925.894" y="1069.877" style="fill:#A53D38;" width="33.218" height="173.243"/>
			<rect x="2257.769" y="1090.771" style="fill:#A53D38;" width="33.219" height="152.35"/>
			<rect x="2124.9" y="1057.894" style="fill:#F1A34F;" width="33.218" height="185.226"/>
			<rect x="2158.119" y="1046.526" style="fill:#A53D38;" width="33.218" height="196.595"/>
			<polygon style="fill:#F1A34F;" points="2370.677,1232.693 2339.049,1243.12 2287.462,1078.173 2319.09,1067.745 			"/>
			<rect x="2228.75" y="1099.626" style="fill:#F1A34F;" width="25.118" height="29.036"/>
			<rect x="2161.346" y="1057.11" style="fill:#F1A34F;" width="25.349" height="6.913"/>
			<rect x="2161.346" y="1068.747" style="fill:#F1A34F;" width="25.349" height="6.913"/>
			<rect x="2193.954" y="1086.606" style="fill:#FFFFFF;" width="27.768" height="3.457"/>
			<path style="fill:#35488B;" d="M1942.426,1108.306L1942.426,1108.306c-6.777,0-12.271-5.494-12.271-12.271v-18.839h24.542v18.839
				C1954.697,1102.812,1949.203,1108.306,1942.426,1108.306z"/>
			<rect x="2027.517" y="1063.37" style="fill:#35488B;" width="28.114" height="3.802"/>
			<rect x="1994.794" y="1233.974" style="fill:#35488B;" width="27.96" height="5.991"/>
			<rect x="1994.794" y="1225.985" style="fill:#35488B;" width="27.96" height="5.992"/>
			<path style="fill:#35488B;" d="M2008.774,1220.609L2008.774,1220.609c-6.682,0-12.098-5.417-12.098-12.098l0,0
				c0-6.682,5.417-12.098,12.098-12.098l0,0c6.682,0,12.098,5.417,12.098,12.098l0,0
				C2020.872,1215.192,2015.456,1220.609,2008.774,1220.609z"/>
			<rect x="1963.508" y="1115.71" style="fill:#A53D38;" width="24.427" height="58.302"/>
			<rect x="2061.929" y="1103.236" style="fill:#FFFFFF;" width="26.117" height="5.991"/>
			<rect x="2062.224" y="1133.501" style="fill:#FFFFFF;" width="26.117" height="5.991"/>
			<path style="fill:#FFFFFF;" d="M2282.93,1115.834h-18.288c-2.503,0-4.532-2.029-4.532-4.532l0,0c0-2.503,2.029-4.532,4.532-4.532
				h18.288c2.503,0,4.532,2.029,4.532,4.532l0,0C2287.462,1113.805,2285.434,1115.834,2282.93,1115.834z"/>
		</g>
		<g>
			<rect x="2478.688" y="1172.803" style="fill:#A53D38;" width="24.551" height="112.599"/>
			<rect x="2601.285" y="1138.398" style="fill:#35488B;" width="24.551" height="147.004"/>
			<rect x="2503.24" y="1172.803" style="fill:#35488B;" width="24.551" height="112.599"/>
			<rect x="2576.736" y="1157.361" style="fill:#F1A34F;" width="24.551" height="128.041"/>
			<rect x="2457.981" y="1148.561" style="fill:#F1A34F;" width="20.764" height="136.898"/>
			<rect x="2625.836" y="1172.803" style="fill:#A53D38;" width="24.551" height="112.599"/>
			<rect x="2527.635" y="1198.511" style="fill:#F1A34F;" width="24.551" height="86.891"/>
			<rect x="2552.187" y="1140.102" style="fill:#A53D38;" width="24.551" height="145.3"/>
			<polygon style="fill:#F1A34F;" points="2709.285,1277.695 2685.909,1285.402 2647.782,1163.492 2671.158,1155.785 			"/>
			<rect x="2604.389" y="1260.516" style="fill:#A53D38;" width="18.564" height="21.46"/>
			<rect x="2554.572" y="1147.924" style="fill:#F1A34F;" width="18.735" height="5.109"/>
			<rect x="2554.572" y="1156.525" style="fill:#F1A34F;" width="18.735" height="5.109"/>
			<rect x="2578.672" y="1169.725" style="fill:#FFFFFF;" width="20.523" height="2.555"/>
			<rect x="2457.945" y="1152.551" style="fill:#35488B;" width="18.495" height="2.81"/>
			<rect x="2481.095" y="1182.016" style="fill:#FFFFFF;" width="19.302" height="4.428"/>
			<rect x="2481.313" y="1204.384" style="fill:#FFFFFF;" width="19.302" height="4.428"/>
			<path style="fill:#FFFFFF;" d="M2644.433,1191.327h-13.517c-1.85,0-3.35-1.5-3.35-3.349l0,0c0-1.85,1.5-3.35,3.35-3.35h13.517
				c1.85,0,3.349,1.5,3.349,3.35l0,0C2647.782,1189.827,2646.283,1191.327,2644.433,1191.327z"/>
		</g>
		<g>
			
				<rect x="2580.895" y="1617.227" transform="matrix(-1 -1.224647e-16 1.224647e-16 -1 5187.7549 3353.5334)" style="fill:#35488B;" width="25.964" height="119.079"/>
			
				<rect x="2457.981" y="1617.227" transform="matrix(-1 -1.224647e-16 1.224647e-16 -1 4935.1885 3353.5334)" style="fill:#A53D38;" width="19.226" height="119.079"/>
			
				<rect x="2554.931" y="1617.227" transform="matrix(-1 -1.224647e-16 1.224647e-16 -1 5135.8262 3353.5334)" style="fill:#A53D38;" width="25.964" height="119.079"/>
			
				<rect x="2477.205" y="1600.896" transform="matrix(-1 -1.224647e-16 1.224647e-16 -1 4980.374 3337.2029)" style="fill:#35488B;" width="25.964" height="135.41"/>
			
				<rect x="2658.714" y="1591.59" transform="matrix(-1 -1.224647e-16 1.224647e-16 -1 5343.3931 3327.9568)" style="fill:#F1A34F;" width="25.964" height="144.776"/>
			
				<rect x="2606.799" y="1591.59" transform="matrix(-1 -1.224647e-16 1.224647e-16 -1 5239.5625 3327.9568)" style="fill:#F1A34F;" width="25.964" height="144.776"/>
			
				<rect x="2632.763" y="1582.674" transform="matrix(-1 -1.224647e-16 1.224647e-16 -1 5291.4907 3319.0107)" style="fill:#A53D38;" width="25.964" height="153.662"/>
			
				<rect x="2684.679" y="1600.896" transform="matrix(-1 -1.224647e-16 1.224647e-16 -1 5395.3213 3337.2029)" style="fill:#A53D38;" width="25.964" height="135.41"/>
			
				<rect x="2529.131" y="1591.53" transform="matrix(-1 -1.224647e-16 1.224647e-16 -1 5084.2266 3327.8367)" style="fill:#F1A34F;" width="25.964" height="144.776"/>
			
				<rect x="2503.167" y="1582.644" transform="matrix(-1 -1.224647e-16 1.224647e-16 -1 5032.2979 3318.9507)" style="fill:#A53D38;" width="25.964" height="153.662"/>
			
				<rect x="2457.981" y="1624.149" transform="matrix(-1 -1.224647e-16 1.224647e-16 -1 4931.9053 3270.9922)" style="fill:#F1A34F;" width="15.943" height="22.695"/>
			
				<rect x="2506.795" y="1590.917" transform="matrix(-1 -1.224647e-16 1.224647e-16 -1 5033.4038 3187.2373)" style="fill:#F1A34F;" width="19.813" height="5.404"/>
			
				<rect x="2506.795" y="1600.013" transform="matrix(-1 -1.224647e-16 1.224647e-16 -1 5033.4038 3205.4292)" style="fill:#F1A34F;" width="19.813" height="5.404"/>
			
				<rect x="2479.417" y="1613.972" transform="matrix(-1 -1.224647e-16 1.224647e-16 -1 4980.5391 3230.6458)" style="fill:#FFFFFF;" width="21.704" height="2.702"/>
			<path style="fill:#35488B;" d="M2697.721,1630.933L2697.721,1630.933c5.297,0,9.591-4.294,9.591-9.591v-14.725h-19.183v14.725
				C2688.129,1626.639,2692.424,1630.933,2697.721,1630.933z"/>
			
				<rect x="2609.238" y="1595.81" transform="matrix(-1 -1.224647e-16 1.224647e-16 -1 5240.4497 3194.592)" style="fill:#35488B;" width="21.974" height="2.972"/>
			
				<rect x="2634.935" y="1729.158" transform="matrix(-1 -1.224647e-16 1.224647e-16 -1 5291.7236 3462.9983)" style="fill:#35488B;" width="21.854" height="4.683"/>
			
				<rect x="2634.935" y="1722.913" transform="matrix(-1 -1.224647e-16 1.224647e-16 -1 5291.7236 3450.51)" style="fill:#35488B;" width="21.854" height="4.683"/>
			<path style="fill:#35488B;" d="M2645.862,1718.711L2645.862,1718.711c5.222,0,9.456-4.234,9.456-9.456l0,0
				c0-5.223-4.234-9.456-9.456-9.456l0,0c-5.223,0-9.456,4.234-9.456,9.456l0,0
				C2636.406,1714.477,2640.639,1718.711,2645.862,1718.711z"/>
			
				<rect x="2662.15" y="1636.72" transform="matrix(-1 -1.224647e-16 1.224647e-16 -1 5343.3931 3319.011)" style="fill:#A53D38;" width="19.093" height="45.57"/>
			
				<rect x="2583.901" y="1626.97" transform="matrix(-1 -1.224647e-16 1.224647e-16 -1 5188.2158 3258.624)" style="fill:#FFFFFF;" width="20.413" height="4.683"/>
			
				<rect x="2583.671" y="1650.626" transform="matrix(-1 -1.224647e-16 1.224647e-16 -1 5187.7549 3305.9353)" style="fill:#FFFFFF;" width="20.413" height="4.683"/>
		</g>
		<g>
			<g>
				<rect x="2054.154" y="1592.273" style="fill:#A53D38;" width="32.031" height="141.84"/>
				<rect x="2310.193" y="1592.273" style="fill:#35488B;" width="32.031" height="141.84"/>
				<rect x="2214.1" y="1587.21" style="fill:#35488B;" width="32.031" height="146.903"/>
				<rect x="2086.184" y="1587.21" style="fill:#F1A34F;" width="32.031" height="146.903"/>
				<rect x="2182.072" y="1607.008" style="fill:#A53D38;" width="32.031" height="127.106"/>
				<rect x="1958.151" y="1542.232" style="fill:#35488B;" width="32.031" height="191.956"/>
				<rect x="2278.162" y="1542.232" style="fill:#A53D38;" width="32.031" height="191.956"/>
				<rect x="2022.197" y="1555.583" style="fill:#35488B;" width="32.031" height="178.604"/>
				<rect x="1990.166" y="1602.638" style="fill:#A53D38;" width="32.031" height="131.513"/>
				<rect x="1926.12" y="1567.064" style="fill:#F1A34F;" width="32.031" height="167.05"/>
				<rect x="2342.07" y="1567.064" style="fill:#F1A34F;" width="32.031" height="167.05"/>
				<rect x="2246.131" y="1561.419" style="fill:#F1A34F;" width="32.031" height="172.695"/>
				<rect x="2118.013" y="1555.509" style="fill:#35488B;" width="32.031" height="178.604"/>
				<rect x="2150.044" y="1544.547" style="fill:#F1A34F;" width="32.031" height="189.566"/>
				<rect x="2218.15" y="1595.749" style="fill:#F1A34F;" width="24.22" height="27.998"/>
				<rect x="2153.156" y="1554.753" style="fill:#F1A34F;" width="24.442" height="6.666"/>
				<rect x="2153.156" y="1565.974" style="fill:#F1A34F;" width="24.442" height="6.666"/>
				<path style="fill:#35488B;" d="M1942.062,1604.119L1942.062,1604.119c-6.535,0-11.832-5.298-11.832-11.832v-18.165h23.665
					v18.165C1953.894,1598.822,1948.597,1604.119,1942.062,1604.119z"/>
				<rect x="2024.111" y="1560.789" style="fill:#35488B;" width="27.109" height="3.666"/>
				<rect x="1992.558" y="1725.294" style="fill:#35488B;" width="26.961" height="5.777"/>
				<rect x="1992.558" y="1717.591" style="fill:#35488B;" width="26.961" height="5.777"/>
				<path style="fill:#35488B;" d="M2006.038,1712.406L2006.038,1712.406c-6.443,0-11.666-5.223-11.666-11.666v0
					c0-6.443,5.223-11.666,11.666-11.666l0,0c6.443,0,11.666,5.223,11.666,11.666v0
					C2017.704,1707.184,2012.481,1712.406,2006.038,1712.406z"/>
				<rect x="1962.39" y="1611.259" style="fill:#A53D38;" width="23.554" height="56.218"/>
				<rect x="2057.293" y="1599.231" style="fill:#FFFFFF;" width="25.183" height="5.777"/>
				<rect x="2057.577" y="1628.413" style="fill:#FFFFFF;" width="25.183" height="5.777"/>
				<path style="fill:#FFFFFF;" d="M2270.393,1577.603h-17.635c-2.413,0-4.37-1.956-4.37-4.37l0,0c0-2.413,1.957-4.37,4.37-4.37
					h17.635c2.413,0,4.37,1.957,4.37,4.37l0,0C2274.763,1575.646,2272.807,1577.603,2270.393,1577.603z"/>
			</g>
			<rect x="2121.696" y="1709.301" style="fill:#FFFFFF;" width="24.665" height="21.771"/>
			<rect x="2184.832" y="1723.369" style="fill:#A53D38;" width="26.117" height="4.814"/>
			<rect x="2346.756" y="1639.33" style="fill:#A53D38;" width="23.044" height="7.513"/>
			<rect x="2346.756" y="1651.553" style="fill:#A53D38;" width="23.044" height="7.513"/>
		</g>
		<g>
			<g>
				
					<rect x="2549.154" y="918.401" transform="matrix(-1 -1.224647e-16 1.224647e-16 -1 5130.3394 1978.6421)" style="fill:#A53D38;" width="32.031" height="141.84"/>
				
					<rect x="2517.123" y="913.338" transform="matrix(-1 -1.224647e-16 1.224647e-16 -1 5066.2773 1973.579)" style="fill:#F1A34F;" width="32.031" height="146.903"/>
				
					<rect x="2645.156" y="868.36" transform="matrix(-1 -1.224647e-16 1.224647e-16 -1 5322.3433 1928.6748)" style="fill:#35488B;" width="32.031" height="191.956"/>
				
					<rect x="2581.111" y="881.711" transform="matrix(-1 -1.224647e-16 1.224647e-16 -1 5194.252 1942.0261)" style="fill:#35488B;" width="32.031" height="178.604"/>
				
					<rect x="2613.141" y="928.765" transform="matrix(-1 -1.224647e-16 1.224647e-16 -1 5258.3135 1989.0435)" style="fill:#A53D38;" width="32.031" height="131.513"/>
				
					<rect x="2677.187" y="893.191" transform="matrix(-1 -1.224647e-16 1.224647e-16 -1 5386.4048 1953.4325)" style="fill:#F1A34F;" width="32.031" height="167.05"/>
				
					<rect x="2485.295" y="881.637" transform="matrix(-1 -1.224647e-16 1.224647e-16 -1 5002.6206 1941.8779)" style="fill:#35488B;" width="32.031" height="178.604"/>
				
					<rect x="2457.981" y="870.675" transform="matrix(-1 -1.224647e-16 1.224647e-16 -1 4943.2764 1930.9159)" style="fill:#F1A34F;" width="27.313" height="189.566"/>
				
					<rect x="2457.981" y="880.88" transform="matrix(-1 -1.224647e-16 1.224647e-16 -1 4940.1641 1768.4268)" style="fill:#A53D38;" width="24.201" height="6.666"/>
				
					<rect x="2457.981" y="892.102" transform="matrix(-1 -1.224647e-16 1.224647e-16 -1 4940.1641 1790.8693)" style="fill:#A53D38;" width="24.201" height="6.666"/>
				<path style="fill:#35488B;" d="M2693.277,930.247L2693.277,930.247c6.535,0,11.832-5.297,11.832-11.832v-18.165h-23.665v18.165
					C2681.444,924.949,2686.742,930.247,2693.277,930.247z"/>
				
					<rect x="2584.119" y="886.917" transform="matrix(-1 -1.224647e-16 1.224647e-16 -1 5195.3467 1777.5)" style="fill:#35488B;" width="27.109" height="3.666"/>
				
					<rect x="2615.82" y="1051.422" transform="matrix(-1 -1.224647e-16 1.224647e-16 -1 5258.6006 2108.6208)" style="fill:#35488B;" width="26.961" height="5.777"/>
				
					<rect x="2615.82" y="1043.719" transform="matrix(-1 -1.224647e-16 1.224647e-16 -1 5258.6006 2093.2146)" style="fill:#35488B;" width="26.961" height="5.777"/>
				<path style="fill:#35488B;" d="M2629.3,1038.534L2629.3,1038.534c6.443,0,11.666-5.223,11.666-11.666l0,0
					c0-6.443-5.223-11.666-11.666-11.666l0,0c-6.443,0-11.666,5.223-11.666,11.666l0,0
					C2617.635,1033.311,2622.858,1038.534,2629.3,1038.534z"/>
				
					<rect x="2649.395" y="937.386" transform="matrix(-1 -1.224647e-16 1.224647e-16 -1 5322.3433 1930.99)" style="fill:#A53D38;" width="23.554" height="56.218"/>
				
					<rect x="2552.862" y="925.358" transform="matrix(-1 -1.224647e-16 1.224647e-16 -1 5130.9077 1856.4935)" style="fill:#FFFFFF;" width="25.183" height="5.777"/>
				
					<rect x="2552.578" y="954.541" transform="matrix(-1 -1.224647e-16 1.224647e-16 -1 5130.3389 1914.8591)" style="fill:#FFFFFF;" width="25.183" height="5.777"/>
			</g>
			
				<rect x="2488.978" y="1035.428" transform="matrix(-1 -1.224647e-16 1.224647e-16 -1 5002.6206 2092.6274)" style="fill:#FFFFFF;" width="24.665" height="21.771"/>
		</g>
	</g>
	<path style="fill:#283250;" d="M2855.508,1752.894H296.886c-1.692,0-3.077-1.384-3.077-3.076l0,0c0-1.692,1.384-3.077,3.077-3.077
		h2558.622c1.692,0,3.077,1.385,3.077,3.077l0,0C2858.585,1751.51,2857.2,1752.894,2855.508,1752.894z"/>
	<g>
		<g>
			<g>
				<path style="fill:#82B378;" d="M1981.72,635.217c0,0,21.935-25.591,1.352-41.847c0,0-15.035-9.102-27.294-8.362
					c0,0,17.371,29.129,11.752,32.026c-5.621,2.898-17.017-33.854-17.017-33.854s-34.214-3.318-45.221,1.974
					c0,0,29.249,23.935,23.089,25.36c-6.16,1.425-37.753-22.068-37.753-22.068s-31.843,5.419-30.146,24.845
					c1.698,19.426,12.67,25.425,17.493,24.908c4.822-0.517,33.033-11.285,33.647-7.334c0.615,3.951-16.366,16.865-28.258,17.469
					c0,0,22.451,24.759,37.372,17.614c14.921-7.146,16.194-18.473,25.495-22.721c9.301-4.248,17.241-4.238,13.401,0.095
					c-3.84,4.333-20.673,8.543-25.992,17.952c-5.319,9.409-10.092,15.754,5.346,13.432c15.437-2.324,40.531-13.619,41.632-26.553
					C1981.72,635.217,1981.72,635.217,1981.72,635.217z"/>
				<g>
					<path style="fill:#82B378;" d="M1876.129,613.814c0,0,86.491-3.333,105.591,21.402c0,0,4.224,12.651,17.222,24.172l2.026,5.522
						c0,0-14.987-15.803-20.35-16.758C1980.618,648.152,1989.005,617.507,1876.129,613.814z"/>
					<path style="fill:#82B378;" d="M1998.942,659.388c0,0,18.565,13.729,19.854,38.261l-3.369,0.301
						c0,0-5.929-25.365-16.647-35.285C1988.065,652.747,1998.942,659.388,1998.942,659.388z"/>
				</g>
			</g>
			<g>
				<path style="fill:#A8D29F;" d="M2058.416,603.033c0,0-34.895-19.541-18.61-46.061c0,0,13.027-16.284,26.984-20.471
					c0,0-7.444,39.547,0,40.478c7.444,0.93,5.118-44.665,5.118-44.665s36.755-17.68,51.178-16.284c0,0-22.798,38.616-15.354,37.686
					c7.444-0.931,33.033-40.012,33.033-40.012s37.686-6.979,43.734,15.353c6.048,22.333-3.722,33.499-9.305,34.895
					c-5.583,1.395-41.408,0.93-40.478,5.583c0.931,4.653,25.124,12.097,38.617,7.91c0,0-14.888,36.755-34.429,34.895
					c-19.541-1.861-25.59-13.958-37.686-14.888c-12.097-0.931-20.937,2.326-14.888,5.583c6.049,3.257,26.52,1.068,36.29,9.374
					c9.77,8.306,17.68,13.424-0.465,17.146c-18.145,3.722-50.714,1.395-57.227-12.562
					C2058.416,603.033,2058.416,603.033,2058.416,603.033z"/>
				<g>
					<path style="fill:#82B378;" d="M2167.287,536.035c0,0-97.704,31.638-108.871,66.997c0,0,0.466,15.819-9.305,33.964v6.979
						c0,0,10.236-23.729,15.819-26.985C2064.929,616.991,2043.062,586.283,2167.287,536.035z"/>
					<path style="fill:#82B378;" d="M2049.111,636.997c0,0-15.068,22.881-6.478,50.734l3.877-1.041c0,0-3.763-30.678,4.12-46.107
						C2058.513,625.153,2049.111,636.997,2049.111,636.997z"/>
				</g>
			</g>
			<g>
				<path style="fill:#A8D29F;" d="M2002.902,576.083c0,0,45.997-25.758,24.532-60.717c0,0-17.173-21.465-35.571-26.985
					c0,0,9.813,52.131,0,53.357c-9.813,1.227-6.746-58.877-6.746-58.877s-48.451-23.305-67.463-21.465
					c0,0,30.051,50.904,20.239,49.677c-9.813-1.227-43.544-52.744-43.544-52.744s-49.677-9.199-57.65,20.239
					c-7.973,29.439,4.906,44.158,12.266,45.997c7.359,1.84,54.583,1.227,53.356,7.36c-1.226,6.133-33.118,15.946-50.903,10.426
					c0,0,19.625,48.451,45.384,45.997c25.758-2.453,33.732-18.399,49.677-19.625c15.946-1.227,27.599,3.067,19.626,7.36
					c-7.973,4.293-34.958,1.407-47.837,12.356c-12.88,10.949-23.305,17.695,0.613,22.602c23.918,4.906,66.849,1.84,75.436-16.559
					C2002.902,576.083,2002.902,576.083,2002.902,576.083z"/>
				<g>
					<path style="fill:#82B378;" d="M1859.389,487.769c0,0,128.793,41.704,143.513,88.315c0,0-0.613,20.852,12.266,44.77v9.2
						c0,0-13.493-31.278-20.852-35.572C1994.316,594.482,2023.14,554.005,1859.389,487.769z"/>
					<path style="fill:#82B378;" d="M2015.168,620.854c0,0,19.862,30.162,8.538,66.876l-5.11-1.372c0,0,4.96-40.44-5.431-60.778
						C2002.773,605.241,2015.168,620.854,2015.168,620.854z"/>
				</g>
			</g>
			<path style="fill:#F1A34F;" d="M2004.451,767.348c-49.762,0-90.101-40.339-90.101-90.101h180.203
				C2094.553,727.008,2054.213,767.348,2004.451,767.348z"/>
			<path style="fill:#FFB973;" d="M1983.774,764.963c3.1,0.672,6.407,1.782,10.201,1.782c49.761,0,89.597-39.739,89.597-89.499
				h-22.384C2061.187,723.219,2028.253,759.45,1983.774,764.963z"/>
			
				<rect x="1912.301" y="677.246" transform="matrix(-1 -1.224647e-16 1.224647e-16 -1 4009.8167 1357.256)" style="fill:#D86713;" width="185.215" height="2.764"/>
		</g>
		<path style="fill:#F1A34F;" d="M2047.701,767.348h-86.499c-1.469,0-2.66-1.191-2.66-2.66l0,0c0-1.469,1.191-2.66,2.66-2.66h86.499
			c1.469,0,2.66,1.191,2.66,2.66l0,0C2050.361,766.157,2049.17,767.348,2047.701,767.348z"/>
	</g>
</g>
</svg>
